<mxfile host="app.diagrams.net" modified="2021-05-08T00:00:55.991Z" agent="5.0 (X11)" etag="Yg6cpA4h1xqrH_j7WGP-" version="14.6.11" type="github">
  <diagram id="4Dhie3PyX-AHg5giMyfw" name="Page-1">
    <mxGraphModel dx="1325" dy="735" grid="1" gridSize="10" guides="1" tooltips="1" connect="1" arrows="1" fold="1" page="1" pageScale="1" pageWidth="827" pageHeight="1169" math="0" shadow="0">
      <root>
        <mxCell id="0" />
        <mxCell id="1" parent="0" />
        <mxCell id="_wjOTsAX8RYI_IzgRSD2-2" value="Queued" style="ellipse;whiteSpace=wrap;html=1;aspect=fixed;" vertex="1" parent="1">
          <mxGeometry x="230" y="440" width="80" height="80" as="geometry" />
        </mxCell>
        <mxCell id="_wjOTsAX8RYI_IzgRSD2-3" value="Failed" style="ellipse;whiteSpace=wrap;html=1;aspect=fixed;" vertex="1" parent="1">
          <mxGeometry x="540" y="250" width="80" height="80" as="geometry" />
        </mxCell>
        <mxCell id="_wjOTsAX8RYI_IzgRSD2-4" value="Running" style="ellipse;whiteSpace=wrap;html=1;aspect=fixed;" vertex="1" parent="1">
          <mxGeometry x="405" y="318" width="80" height="80" as="geometry" />
        </mxCell>
        <mxCell id="_wjOTsAX8RYI_IzgRSD2-5" value="Paused" style="ellipse;whiteSpace=wrap;html=1;aspect=fixed;" vertex="1" parent="1">
          <mxGeometry x="405" y="440" width="80" height="80" as="geometry" />
        </mxCell>
        <mxCell id="_wjOTsAX8RYI_IzgRSD2-6" value="Cancelled" style="ellipse;whiteSpace=wrap;html=1;aspect=fixed;" vertex="1" parent="1">
          <mxGeometry x="405" y="570" width="80" height="80" as="geometry" />
        </mxCell>
        <mxCell id="_wjOTsAX8RYI_IzgRSD2-7" value="Success" style="ellipse;whiteSpace=wrap;html=1;aspect=fixed;" vertex="1" parent="1">
          <mxGeometry x="580" y="440" width="80" height="80" as="geometry" />
        </mxCell>
        <mxCell id="_wjOTsAX8RYI_IzgRSD2-9" value="" style="ellipse;whiteSpace=wrap;html=1;aspect=fixed;fillColor=#000000;" vertex="1" parent="1">
          <mxGeometry x="110" y="460" width="40" height="40" as="geometry" />
        </mxCell>
        <mxCell id="_wjOTsAX8RYI_IzgRSD2-10" value="" style="endArrow=classic;html=1;exitX=1;exitY=0.5;exitDx=0;exitDy=0;entryX=0;entryY=0.5;entryDx=0;entryDy=0;" edge="1" parent="1" source="_wjOTsAX8RYI_IzgRSD2-9" target="_wjOTsAX8RYI_IzgRSD2-2">
          <mxGeometry relative="1" as="geometry">
            <mxPoint x="360" y="650" as="sourcePoint" />
            <mxPoint x="460" y="650" as="targetPoint" />
          </mxGeometry>
        </mxCell>
        <mxCell id="_wjOTsAX8RYI_IzgRSD2-11" value="execute" style="edgeLabel;resizable=0;html=1;align=center;verticalAlign=middle;" connectable="0" vertex="1" parent="_wjOTsAX8RYI_IzgRSD2-10">
          <mxGeometry relative="1" as="geometry" />
        </mxCell>
        <mxCell id="_wjOTsAX8RYI_IzgRSD2-12" value="" style="endArrow=classic;html=1;" edge="1" parent="1" source="_wjOTsAX8RYI_IzgRSD2-2" target="_wjOTsAX8RYI_IzgRSD2-4">
          <mxGeometry relative="1" as="geometry">
            <mxPoint x="150" y="490" as="sourcePoint" />
            <mxPoint x="240" y="490" as="targetPoint" />
          </mxGeometry>
        </mxCell>
        <mxCell id="_wjOTsAX8RYI_IzgRSD2-13" value="execute" style="edgeLabel;resizable=0;html=1;align=center;verticalAlign=middle;" connectable="0" vertex="1" parent="_wjOTsAX8RYI_IzgRSD2-12">
          <mxGeometry relative="1" as="geometry" />
        </mxCell>
        <mxCell id="_wjOTsAX8RYI_IzgRSD2-14" value="" style="endArrow=classic;html=1;entryX=0.045;entryY=0.265;entryDx=0;entryDy=0;entryPerimeter=0;" edge="1" parent="1" source="_wjOTsAX8RYI_IzgRSD2-2" target="_wjOTsAX8RYI_IzgRSD2-6">
          <mxGeometry relative="1" as="geometry">
            <mxPoint x="160" y="500" as="sourcePoint" />
            <mxPoint x="250" y="500" as="targetPoint" />
          </mxGeometry>
        </mxCell>
        <mxCell id="_wjOTsAX8RYI_IzgRSD2-15" value="cancel" style="edgeLabel;resizable=0;html=1;align=center;verticalAlign=middle;" connectable="0" vertex="1" parent="_wjOTsAX8RYI_IzgRSD2-14">
          <mxGeometry relative="1" as="geometry" />
        </mxCell>
        <mxCell id="_wjOTsAX8RYI_IzgRSD2-16" value="" style="endArrow=classic;html=1;entryX=0.3;entryY=0.059;entryDx=0;entryDy=0;entryPerimeter=0;exitX=0.307;exitY=0.955;exitDx=0;exitDy=0;exitPerimeter=0;" edge="1" parent="1" source="_wjOTsAX8RYI_IzgRSD2-4" target="_wjOTsAX8RYI_IzgRSD2-5">
          <mxGeometry relative="1" as="geometry">
            <mxPoint x="435" y="397" as="sourcePoint" />
            <mxPoint x="260" y="510" as="targetPoint" />
          </mxGeometry>
        </mxCell>
        <mxCell id="_wjOTsAX8RYI_IzgRSD2-17" value="pause" style="edgeLabel;resizable=0;html=1;align=center;verticalAlign=middle;" connectable="0" vertex="1" parent="_wjOTsAX8RYI_IzgRSD2-16">
          <mxGeometry relative="1" as="geometry">
            <mxPoint y="-10" as="offset" />
          </mxGeometry>
        </mxCell>
        <mxCell id="_wjOTsAX8RYI_IzgRSD2-19" value="" style="endArrow=classic;html=1;entryX=0.775;entryY=0.905;entryDx=0;entryDy=0;entryPerimeter=0;exitX=0.78;exitY=0.08;exitDx=0;exitDy=0;exitPerimeter=0;" edge="1" parent="1" source="_wjOTsAX8RYI_IzgRSD2-5" target="_wjOTsAX8RYI_IzgRSD2-4">
          <mxGeometry relative="1" as="geometry">
            <mxPoint x="445" y="407" as="sourcePoint" />
            <mxPoint x="444.5999999999999" y="449.6" as="targetPoint" />
          </mxGeometry>
        </mxCell>
        <mxCell id="_wjOTsAX8RYI_IzgRSD2-20" value="execute" style="edgeLabel;resizable=0;html=1;align=center;verticalAlign=middle;" connectable="0" vertex="1" parent="_wjOTsAX8RYI_IzgRSD2-19">
          <mxGeometry relative="1" as="geometry">
            <mxPoint x="3" y="12" as="offset" />
          </mxGeometry>
        </mxCell>
        <mxCell id="_wjOTsAX8RYI_IzgRSD2-21" value="" style="endArrow=classic;html=1;entryX=0.5;entryY=0;entryDx=0;entryDy=0;exitX=0.5;exitY=1;exitDx=0;exitDy=0;" edge="1" parent="1" source="_wjOTsAX8RYI_IzgRSD2-5" target="_wjOTsAX8RYI_IzgRSD2-6">
          <mxGeometry relative="1" as="geometry">
            <mxPoint x="311.20056939507253" y="515.0304708190483" as="sourcePoint" />
            <mxPoint x="418.5999999999999" y="601.2" as="targetPoint" />
          </mxGeometry>
        </mxCell>
        <mxCell id="_wjOTsAX8RYI_IzgRSD2-22" value="cancel" style="edgeLabel;resizable=0;html=1;align=center;verticalAlign=middle;" connectable="0" vertex="1" parent="_wjOTsAX8RYI_IzgRSD2-21">
          <mxGeometry relative="1" as="geometry" />
        </mxCell>
        <mxCell id="_wjOTsAX8RYI_IzgRSD2-25" value="" style="endArrow=classic;html=1;entryX=0.125;entryY=0.125;entryDx=0;entryDy=0;entryPerimeter=0;exitX=0.96;exitY=0.667;exitDx=0;exitDy=0;exitPerimeter=0;" edge="1" parent="1" source="_wjOTsAX8RYI_IzgRSD2-4" target="_wjOTsAX8RYI_IzgRSD2-7">
          <mxGeometry relative="1" as="geometry">
            <mxPoint x="312.8204910456908" y="467.1348438116129" as="sourcePoint" />
            <mxPoint x="422.18185199536856" y="390.8685190064018" as="targetPoint" />
          </mxGeometry>
        </mxCell>
        <mxCell id="_wjOTsAX8RYI_IzgRSD2-26" value="finish" style="edgeLabel;resizable=0;html=1;align=center;verticalAlign=middle;" connectable="0" vertex="1" parent="_wjOTsAX8RYI_IzgRSD2-25">
          <mxGeometry relative="1" as="geometry" />
        </mxCell>
        <mxCell id="_wjOTsAX8RYI_IzgRSD2-27" value="" style="endArrow=classic;html=1;entryX=0.023;entryY=0.728;entryDx=0;entryDy=0;entryPerimeter=0;exitX=0.938;exitY=0.275;exitDx=0;exitDy=0;exitPerimeter=0;" edge="1" parent="1" source="_wjOTsAX8RYI_IzgRSD2-4" target="_wjOTsAX8RYI_IzgRSD2-3">
          <mxGeometry relative="1" as="geometry">
            <mxPoint x="491.79999999999995" y="381.36" as="sourcePoint" />
            <mxPoint x="600.0000000000002" y="460" as="targetPoint" />
          </mxGeometry>
        </mxCell>
        <mxCell id="_wjOTsAX8RYI_IzgRSD2-28" value="fail" style="edgeLabel;resizable=0;html=1;align=center;verticalAlign=middle;" connectable="0" vertex="1" parent="_wjOTsAX8RYI_IzgRSD2-27">
          <mxGeometry relative="1" as="geometry" />
        </mxCell>
      </root>
    </mxGraphModel>
  </diagram>
</mxfile>
